<?xml version="1.0" encoding="utf-8"?>
<!-- Generator: Adobe Illustrator 22.0.1, SVG Export Plug-In . SVG Version: 6.00 Build 0)  -->
<svg version="1.1" id="Ch" xmlns="http://www.w3.org/2000/svg" xmlns:xlink="http://www.w3.org/1999/xlink" x="0px" y="0px"
	 viewBox="0 0 48 36" style="enable-background:new 0 0 48 36;" xml:space="preserve">
<style type="text/css">
	.st0{fill:#DE2910;}
	.st1{fill:#FFDE00;}
</style>
<rect x="0" class="st0" width="48" height="36"/>
<g>
	<polygon class="st1" points="11.2,9.3 10,5.6 8.8,9.3 4.9,9.3 8,11.6 6.8,15.4 10,13.1 13.2,15.4 12,11.6 15.1,9.3 	"/>
	<polygon class="st1" points="18.7,6.2 19.4,7.4 19.5,6.1 20.8,5.8 19.6,5.2 19.7,3.9 18.8,4.9 17.6,4.4 18.3,5.5 17.5,6.5 	"/>
	<polygon class="st1" points="22.1,9.7 22.3,11 22.9,9.8 24.2,10 23.3,9.1 23.9,7.9 22.7,8.5 21.8,7.6 22,8.9 20.8,9.5 	"/>
	<polygon class="st1" points="23.3,14.8 24.3,14 23,14 22.5,12.8 22.2,14.1 20.9,14.1 22,14.8 21.6,16.1 22.6,15.3 23.7,16 	"/>
	<polygon class="st1" points="19.6,17.8 19.6,16.5 18.8,17.5 17.6,17.1 18.3,18.2 17.5,19.2 18.8,18.8 19.5,19.9 19.5,18.6 
		20.8,18.3 	"/>
</g>
</svg>
